# xmcd
#
# Track frame offsets:
#	150
#	16204
#	31668
#	48999
#	60934
#	74491
#	95136
#	113166
#	130064
#	141617
#	153581
#	168977
#	191786
#	210598
#	230999
#
# Disc length: 3228 seconds
#
# Revision: 0
# Processed by: cddbd v1.5.1PL2 Copyright (c) Steve Scherf et al.
# Submitted via: dBpowerAMP V4.0
#
DISCID=d80c9a0f
DTITLE=Ibrahim Ferrer - El Dandy
DYEAR=2004
DGENRE=Latin
TTITLE0=Viene de la tierra caliente
TTITLE1=Manana me voy a sibanicu
TTITLE2=La chica del granizado
TTITLE3=Ya soy feliz
TTITLE4=Una fuerza inmesa
TTITLE5=Un son para el guayabero
TTITLE6=Esto seco y me quiero mojar
TTITLE7=Ahora no puedo
TTITLE8=Pero que suegro
TTITLE9=Fomento
TTITLE10=Santa celilia
TTITLE11=El son de la santiaguera
TTITLE12=Esto se baila y se toca
TTITLE13=Compositor confundido
TTITLE14=Mi oriente
EXTD=
EXTT0=
EXTT1=
EXTT2=
EXTT3=
EXTT4=
EXTT5=
EXTT6=
EXTT7=
EXTT8=
EXTT9=
EXTT10=
EXTT11=
EXTT12=
EXTT13=
EXTT14=
PLAYORDER=
